<?xml version="1.0" standalone="no"?><!DOCTYPE svg PUBLIC "-//W3C//DTD SVG 1.1//EN" "http://www.w3.org/Graphics/SVG/1.1/DTD/svg11.dtd"><svg t="1712626512641" class="icon" viewBox="0 0 1686 1024" version="1.1" xmlns="http://www.w3.org/2000/svg" p-id="8852" width="105.375" height="64" xmlns:xlink="http://www.w3.org/1999/xlink"><path d="M1193.283682 520.876955a22.396912 22.396912 0 0 0 22.386288-22.386288V251.689019a44.995694 44.995694 0 0 0-44.889447-44.910696H946.482034V94.591892c0-12.324677-10.08286-22.396912-22.386287-22.396912s-22.386287 10.08286-22.386287 22.396912v112.186431h-246.812273V94.591892c0-12.324677-10.093485-22.396912-22.396912-22.396912a22.471285 22.471285 0 0 0-22.396912 22.396912v112.186431H408.191162a45.016944 45.016944 0 0 0-44.910696 44.910696v717.901784c0 24.713101 20.18697 44.900072 44.910696 44.900072h762.684983a45.016944 45.016944 0 0 0 44.921321-44.900072V677.899708a22.396912 22.396912 0 0 0-22.407537-22.396912 22.471285 22.471285 0 0 0-22.386287 22.396912V947.087644a22.396912 22.396912 0 0 1-22.386288 22.375662h-718.018655a22.396912 22.396912 0 0 1-22.396912-22.375662V431.066187h762.684983v67.318233a22.418162 22.418162 0 0 0 22.396912 22.492535zM408.07429 386.272362v-112.197055a22.418162 22.418162 0 0 1 22.407537-22.386288h717.912408a22.418162 22.418162 0 0 1 22.386288 22.386288v112.197055H408.07429z" fill="#a244f5" p-id="8853"></path><path d="M906.830575 567.870096c76.827359 0 139.364467 62.547733 139.364467 139.364468 0 76.859233-62.537109 139.364467-139.364467 139.364467-76.848608 0-139.375092-62.505235-139.375092-139.364467-0.010625-76.827359 62.515859-139.364467 139.375092-139.364468m0-25.669326c-91.170732 0-165.044418 73.884311-165.044418 165.033794 0 91.160107 73.884311 165.033794 165.044418 165.033793 91.138858 0 165.033794-73.873686 165.033794-165.033793 0-91.149483-73.894936-165.033794-165.033794-165.033794z m240.586186 379.716909l-97.630563-97.641187a184.445159 184.445159 0 0 1-25.913695 25.924319l97.630563 97.619938a18.29577 18.29577 0 0 0 25.934944 0c3.431785-3.42116 5.376109-8.096038 5.376109-12.951535a18.348893 18.348893 0 0 0-5.397358-12.951535z" fill="#a244f5" p-id="8854"></path><path d="M483.541684 470.175785h94.751264v46.85502h-94.751264zM612.844541 470.175785H707.606429v46.85502h-94.761888zM742.158022 470.175785h94.751263v46.85502h-94.751263zM871.460878 470.175785h94.772513v46.85502h-94.772513zM1000.763735 470.175785h94.772513v46.85502h-94.772513z" fill="#a244f5" p-id="8855"></path><path d="M483.541684 568.996317h94.751264v46.844395h-94.751264zM612.844541 568.996317H707.606429v46.844395h-94.761888z" fill="#a244f5" p-id="8856"></path><path d="M483.541684 667.816848h94.751264v46.865645h-94.751264zM612.844541 667.816848H707.606429v46.865645h-94.761888z" fill="#a244f5" p-id="8857"></path><path d="M483.541684 766.648004h94.751264v46.833771h-94.751264zM612.844541 766.648004H707.606429v46.833771h-94.761888z" fill="#a244f5" p-id="8858"></path><path d="M483.541684 865.47916h94.751264v46.855021h-94.751264zM612.844541 865.47916H707.606429v46.855021h-94.761888z" fill="#a244f5" p-id="8859"></path><path d="M292.774816 964.512186H168.072464a24.999969 24.999969 0 0 0-24.97872 25.010594 25.074342 25.074342 0 0 0 24.97872 24.978719h124.702352a25.010594 25.010594 0 0 0 24.97872-24.978719 25.084967 25.084967 0 0 0-24.97872-25.010594zM1344.44159 863.927951H1219.739238a24.999969 24.999969 0 0 0-24.97872 24.989344 25.074342 25.074342 0 0 0 24.97872 24.989344H1344.44159a25.010594 25.010594 0 0 0 24.978719-24.989344 25.074342 25.074342 0 0 0-24.978719-24.989344z" fill="#a244f5" p-id="8860"></path><path d="M323.692755 53.15548h-95.016882c-10.550348 0-19.028876 8.584775-19.028875 19.0395 0 10.46535 8.57415 19.028876 19.028875 19.028876H323.692755c10.560973 0 19.0395-8.584775 19.0395-19.028876 0-10.454726-8.57415-19.0395-19.0395-19.0395z" fill="#a244f5" p-id="8861"></path><path d="M295.229127 119.708733V24.670603c0-10.550348-8.584775-19.0395-19.028876-19.039501-10.46535 0-19.0395 8.584775-19.0395 19.039501V119.698109c0 10.550348 8.584775 19.0395 19.0395 19.0395s19.028876-8.584775 19.028876-19.028876z" fill="#a244f5" p-id="8862"></path><path d="M197.587939 754.578321h-60.231544c-6.68295 0-12.059059 5.450482-12.059058 12.069683 0 6.640451 5.439857 12.059059 12.059058 12.059059h60.231544c6.693574 0 12.069683-5.439857 12.069684-12.059059a12.112182 12.112182 0 0 0-12.069684-12.069683z" fill="#a244f5" p-id="8863"></path><path d="M179.536538 796.758464V736.548169c0-6.693574-5.439857-12.069683-12.059058-12.069683a12.112182 12.112182 0 0 0-12.069684 12.069683V796.758464a12.069683 12.069683 0 0 0 24.128742 0z" fill="#a244f5" p-id="8864"></path><path d="M1662.545741 655.747165h-60.210294a12.080308 12.080308 0 0 0 0 24.160616h60.210294c6.68295 0 12.069683-5.461107 12.069684-12.080308a12.112182 12.112182 0 0 0-12.069684-12.080308z" fill="#a244f5" p-id="8865"></path><path d="M1644.49434 697.927308V637.717013c0-6.68295-5.439857-12.069683-12.059058-12.069683-6.640451 0-12.059059 5.439857-12.059059 12.069683V697.927308c0 6.68295 5.439857 12.069683 12.059059 12.069683 6.651075 0 12.059059-5.439857 12.059058-12.069683z" fill="#a244f5" p-id="8866"></path><path d="M84.57278 282.181969a70.835016 70.835016 0 1 0 0 141.670032 70.835016 70.835016 0 0 0 0-141.670032z m0 111.857064a41.022048 41.022048 0 1 1 0.010625-82.054721 41.022048 41.022048 0 0 1-0.010625 82.054721zM1462.705361 168.369956a63.8227 63.8227 0 1 0 0 127.6454 63.833325 63.833325 0 0 0 0-127.6454z m0 100.786105a36.963405 36.963405 0 1 1 0-73.92681 36.963405 36.963405 0 0 1 0 73.92681z" fill="#a244f5" p-id="8867"></path></svg>